<?xml version="1.0" standalone="no"?>
<!DOCTYPE svg PUBLIC "-//W3C//DTD SVG 20010904//EN"
 "http://www.w3.org/TR/2001/REC-SVG-20010904/DTD/svg10.dtd">
<svg version="1.0" xmlns="http://www.w3.org/2000/svg"
 width="260.000000pt" height="260.000000pt" viewBox="0 0 260.000000 260.000000"
 preserveAspectRatio="xMidYMid meet">
<metadata>
Created by potrace 1.14, written by Peter Selinger 2001-2017
</metadata>
<g transform="translate(0.000000,260.000000) scale(0.100000,-0.100000)"
fill="#000000" stroke="none">
<path d="M1175 2570 c-312 -29 -547 -142 -775 -370 -260 -259 -372 -531 -372
-900 0 -369 112 -641 372 -900 260 -260 531 -372 900 -372 369 0 640 112 900
372 260 259 372 531 372 900 0 369 -112 641 -372 900 -152 153 -286 240 -466
304 -152 55 -386 82 -559 66z m302 -61 c419 -58 787 -338 953 -727 130 -304
130 -660 0 -964 -166 -389 -534 -669 -953 -727 -659 -91 -1263 339 -1388 989
-16 84 -16 356 0 440 99 515 516 916 1026 989 88 13 272 13 362 0z"/>
<path d="M1110 2425 c-351 -59 -660 -283 -823 -594 -210 -402 -174 -848 98
-1216 170 -231 442 -394 735 -441 431 -70 882 123 1121 480 39 58 58 94 53
105 -3 9 -12 45 -20 81 -19 89 -102 253 -172 342 -33 41 -93 105 -135 143 -42
38 -74 72 -71 77 3 4 23 8 45 8 l39 0 0 175 0 175 168 -2 167 -3 5 -485 5
-485 27 65 c61 146 98 316 98 449 0 259 -113 554 -288 753 -173 196 -419 331
-682 374 -103 17 -268 16 -370 -1z m-500 -893 l0 -229 -26 -24 c-56 -51 -142
-169 -188 -258 -55 -107 -61 -107 -98 -6 -21 57 -23 79 -26 388 -2 181 -1 335
2 343 4 11 36 14 171 14 l165 0 0 -228z m658 131 l3 -93 -43 0 c-36 -1 -123
-16 -270 -47 l-28 -5 0 114 c0 63 3 118 7 122 4 3 79 5 167 4 l161 -3 3 -92z
m412 -28 c0 -79 -4 -125 -10 -125 -6 0 -26 6 -45 14 -19 8 -85 22 -147 32 -62
9 -119 18 -125 20 -14 4 -19 165 -6 177 3 4 80 7 170 7 l163 0 0 -125z m-412
-362 c2 -102 -2 -162 -13 -209 -40 -172 -152 -287 -327 -338 -75 -21 -241 -21
-316 0 -75 22 -132 51 -132 68 0 8 15 51 34 96 29 68 51 107 108 193 3 6 17 1
33 -11 76 -60 202 -47 251 25 14 21 20 53 24 133 l5 105 69 27 c73 30 194 58
236 55 l25 -2 3 -142z m179 132 c141 -27 286 -95 405 -191 65 -52 108 -101
108 -123 0 -7 -45 -11 -140 -11 l-140 0 0 -175 0 -175 -167 2 -168 3 -3 330
c-1 181 0 336 3 342 6 16 6 16 102 -2z m606 -447 c49 -99 77 -176 77 -208 0
-18 -7 -20 -75 -20 l-75 0 0 160 c0 194 8 202 73 68z"/>
</g>
</svg>
