<svg width="18" height="18" viewBox="0 0 18 18" fill="none" xmlns="http://www.w3.org/2000/svg">
<g id="ant-design:linkedin-filled">
<path id="Vector" d="M15.4688 1.96875H2.53125C2.22012 1.96875 1.96875 2.22012 1.96875 2.53125V15.4688C1.96875 15.7799 2.22012 16.0312 2.53125 16.0312H15.4688C15.7799 16.0312 16.0312 15.7799 16.0312 15.4688V2.53125C16.0312 2.22012 15.7799 1.96875 15.4688 1.96875ZM6.14004 13.9518H4.05352V7.24043H6.14004V13.9518ZM5.09766 6.32285C4.85846 6.32285 4.62464 6.25192 4.42576 6.11903C4.22688 5.98615 4.07187 5.79727 3.98034 5.57628C3.8888 5.3553 3.86486 5.11213 3.91152 4.87754C3.95818 4.64294 4.07336 4.42745 4.2425 4.25832C4.41163 4.08919 4.62712 3.974 4.86172 3.92734C5.09631 3.88068 5.33948 3.90462 5.56046 3.99616C5.78145 4.08769 5.97033 4.2427 6.10321 4.44158C6.2361 4.64046 6.30703 4.87428 6.30703 5.11348C6.30527 5.78145 5.76387 6.32285 5.09766 6.32285ZM13.9518 13.9518H11.867V10.6875C11.867 9.90879 11.8529 8.90859 10.7824 8.90859C9.69785 8.90859 9.53086 9.75586 9.53086 10.6312V13.9518H7.44785V7.24043H9.44824V8.15801H9.47637C9.7541 7.63066 10.4344 7.07344 11.4504 7.07344C13.5633 7.07344 13.9518 8.46387 13.9518 10.2709V13.9518Z" fill="white"/>
</g>
</svg>
