<svg width="50" height="50" viewBox="0 0 50 50" fill="none" xmlns="http://www.w3.org/2000/svg">
<g id="ic:outline-handshake">
<path id="Vector" d="M25.4582 41.3542C25.0832 41.7292 24.4165 41.7917 23.979 41.3542C23.7839 41.1575 23.6743 40.8916 23.6743 40.6146C23.6743 40.3375 23.7839 40.0717 23.979 39.875L31.0415 32.8125L28.104 29.875L21.0415 36.9375C20.6457 37.3542 19.979 37.3333 19.5624 36.9375C19.3672 36.7408 19.2577 36.475 19.2577 36.1979C19.2577 35.9208 19.3672 35.655 19.5624 35.4583L26.6249 28.3958L23.6874 25.4583L16.6249 32.5208C16.2499 32.8958 15.5832 32.9583 15.1457 32.5208C14.9549 32.3218 14.8485 32.0569 14.8485 31.7812C14.8485 31.5056 14.9549 31.2406 15.1457 31.0417L22.2082 23.9792L19.2499 21.0417L12.1874 28.1042C11.8124 28.4792 11.1457 28.5417 10.7082 28.1042C10.5174 27.9052 10.411 27.6402 10.411 27.3646C10.411 27.0889 10.5174 26.824 10.7082 26.625L19.8332 17.5L23.729 21.375C25.7082 23.3542 29.1249 23.3333 31.104 21.375C33.1457 19.3333 33.1457 16.0417 31.104 14L27.229 10.125L27.8124 9.54165C29.4374 7.91665 32.0832 7.91665 33.7082 9.54165L42.5415 18.375C44.1665 20 44.1665 22.6458 42.5415 24.2708L25.4582 41.3542ZM45.479 27.2292C47.0398 25.6639 47.9162 23.5437 47.9162 21.3333C47.9162 19.1229 47.0398 17.0027 45.479 15.4375L36.6457 6.60415C35.0805 5.04342 32.9602 4.16699 30.7499 4.16699C28.5395 4.16699 26.4193 5.04342 24.854 6.60415L24.2707 7.18749L23.6874 6.60415C22.1221 5.04342 20.0019 4.16699 17.7915 4.16699C15.5811 4.16699 13.4609 5.04342 11.8957 6.60415L4.52069 13.9792C3.11131 15.3837 2.25221 17.247 2.09931 19.2309C1.94641 21.2148 2.50985 23.1877 3.68735 24.7917L6.70819 21.7708C6.30546 20.9845 6.1631 20.0905 6.30165 19.218C6.44021 18.3455 6.85251 17.5395 7.47902 16.9167L14.854 9.54165C16.479 7.91665 19.1249 7.91665 20.7499 9.54165L28.1665 16.9583C28.5415 17.3333 28.604 18 28.1665 18.4375C27.729 18.875 27.0624 18.8125 26.6874 18.4375L19.8332 11.6042L7.74985 23.6667C5.70819 25.6875 5.70819 29 7.74985 31.0417C8.56235 31.8542 9.60402 32.3542 10.7082 32.5C10.8541 33.6203 11.3663 34.6608 12.1652 35.4597C12.964 36.2585 14.0046 36.7708 15.1249 36.9167C15.2707 38.0369 15.783 39.0775 16.5818 39.8763C17.3807 40.6752 18.4213 41.1874 19.5415 41.3333C19.6874 42.4583 20.1874 43.4792 20.9999 44.2917C21.979 45.2708 23.2915 45.8125 24.6874 45.8125C26.0832 45.8125 27.3957 45.2708 28.3749 44.2917L45.479 27.2292Z" fill="white"/>
</g>
</svg>
