<svg width="18" height="18" viewBox="0 0 18 18" fill="none" xmlns="http://www.w3.org/2000/svg">
<path d="M9 6.5625C8.35353 6.5625 7.73355 6.81931 7.27643 7.27643C6.81931 7.73355 6.5625 8.35353 6.5625 9C6.5625 9.64647 6.81931 10.2665 7.27643 10.7236C7.73355 11.1807 8.35353 11.4375 9 11.4375C9.64647 11.4375 10.2665 11.1807 10.7236 10.7236C11.1807 10.2665 11.4375 9.64647 11.4375 9C11.4375 8.35353 11.1807 7.73355 10.7236 7.27643C10.2665 6.81931 9.64647 6.5625 9 6.5625Z" fill="white"/>
<path fill-rule="evenodd" clip-rule="evenodd" d="M5.07761 2.31146C7.68463 2.02248 10.3156 2.02248 12.9226 2.31146C14.3469 2.47046 15.4951 3.59171 15.6624 5.02121C15.9715 7.6647 15.9715 10.3352 15.6624 12.9787C15.4951 14.4082 14.3469 15.5295 12.9234 15.6892C10.3161 15.9783 7.68487 15.9783 5.07761 15.6892C3.65336 15.5295 2.50511 14.4082 2.33786 12.9795C2.02866 10.3357 2.02866 7.66495 2.33786 5.02121C2.50511 3.59171 3.65336 2.47046 5.07761 2.31146ZM12.7501 4.49996C12.5512 4.49996 12.3604 4.57898 12.2198 4.71963C12.0791 4.86028 12.0001 5.05105 12.0001 5.24996C12.0001 5.44887 12.0791 5.63964 12.2198 5.78029C12.3604 5.92094 12.5512 5.99996 12.7501 5.99996C12.949 5.99996 13.1398 5.92094 13.2804 5.78029C13.4211 5.63964 13.5001 5.44887 13.5001 5.24996C13.5001 5.05105 13.4211 4.86028 13.2804 4.71963C13.1398 4.57898 12.949 4.49996 12.7501 4.49996ZM5.43761 8.99996C5.43761 8.05512 5.81294 7.14899 6.48104 6.48089C7.14914 5.81279 8.05528 5.43746 9.00011 5.43746C9.94494 5.43746 10.8511 5.81279 11.5192 6.48089C12.1873 7.14899 12.5626 8.05512 12.5626 8.99996C12.5626 9.94479 12.1873 10.8509 11.5192 11.519C10.8511 12.1871 9.94494 12.5625 9.00011 12.5625C8.05528 12.5625 7.14914 12.1871 6.48104 11.519C5.81294 10.8509 5.43761 9.94479 5.43761 8.99996Z" fill="white"/>
</svg>
